<svg
  width="512"
  height="512"
  viewBox="0 0 512 512"
  fill="none"
  xmlns="http://www.w3.org/2000/svg"
>
  <path
    d="M244.903 490.64C223.27 488.065 202.005 478.941 185.597 465.255C172.279 454.218 163.375 442.96 147.776 417.648C142.11 408.45 135.12 397.192 132.177 392.63C129.234 388.142 124.966 381.225 122.611 377.399C120.33 373.573 113.119 361.947 106.644 351.645C95.6073 334.059 80.6703 310.072 63.1583 281.743C58.1569 273.633 53.1288 265.538 48.0743 257.461C44.1624 251.214 40.2624 244.96 36.3743 238.698C32.7439 232.797 29.0895 226.91 25.4113 221.039C10.9153 197.787 5.17629 183.586 1.64429 162.174C-0.19571 151.137 -0.56371 133.698 0.90829 123.544C4.36629 99.556 14.6683 77.555 31.0763 59.234C43.2173 45.62 62.6433 33.26 81.1863 27.299C94.5763 22.959 99.0663 22.369 117.24 22.369C131.662 22.443 134.826 22.664 141.522 24.062C162.566 28.624 181.256 37.895 198.253 52.022C209.584 61.515 215.692 69.903 239.753 109.195C246.89 120.968 253.365 131.49 254.027 132.594L255.352 134.654L261.238 124.868C285.962 83.663 290.009 77.335 298.102 66.739C316.939 41.942 345.194 26.122 377.349 22.369C389.049 21.045 396.113 20.971 407.15 22.296C434.154 25.534 457.847 37.012 477.493 56.291C494.123 72.626 505.528 93.891 510.311 117.804C511.782 125.015 512.003 128.4 512.003 143.043C512.003 161.732 511.488 165.485 506.779 181.894C503.688 192.563 498.611 203.526 490.297 216.992C486.985 222.437 480.437 233.253 475.727 240.906C471.092 248.632 464.764 258.859 461.747 263.716C456.137 272.765 450.569 281.84 445.044 290.941C432.02 312.353 409.284 349.438 405.531 355.324C404.059 357.532 399.277 365.331 394.862 372.616C353.803 440.09 348.653 447.816 336.733 459.074C319.956 475.041 298.397 486.152 277.5 489.61C268.891 491.082 252.629 491.597 244.903 490.64ZM274.704 448.11C287.433 444.799 301.708 436.117 310.611 426.183C315.32 421.032 318.632 416.102 329.448 398.001C333.201 391.747 342.325 376.81 349.756 364.89C365.429 339.578 383.604 310.293 399.645 284.319C406.032 274.024 412.409 263.722 418.776 253.414C444.603 211.694 458.289 188.957 461.673 182.261C465.426 174.756 469.399 162.983 470.503 155.919C471.533 149.076 470.945 131.638 469.473 124.942C466.235 110.961 459.245 98.011 448.944 87.121C434.154 71.521 416.495 63.575 395.009 62.692C383.825 62.251 373.818 63.942 364.473 67.842C349.094 74.171 334.672 85.944 325.843 99.262C322.09 105.075 307.447 128.989 284.269 167.324C276.568 180.094 268.842 192.848 261.091 205.587C255.94 214.122 247.994 227.146 243.432 234.651C221.21 271.295 211.203 287.409 209.731 288.954C208.922 289.837 206.347 291.53 204.139 292.56C200.607 294.326 199.136 294.62 193.396 294.546C187.804 294.546 186.112 294.252 182.58 292.633C176.473 289.837 173.677 287.409 170.366 282.258C167.643 277.991 116.21 194.402 108.263 181.378C102.818 172.402 102.009 167.398 104.805 160.04C107.895 151.725 115.842 146.06 124.377 146.133C129.969 146.207 134.164 148.046 138.284 152.387C139.977 154.227 152.265 173.8 166.539 197.714C186.627 231.267 191.998 239.655 192.734 238.919C193.176 238.404 202.079 223.761 212.528 206.47L231.364 174.903L228.863 170.783C227.465 168.502 221.431 158.642 215.471 148.929C209.511 139.216 200.975 125.31 196.56 118.025C183.463 96.76 182.139 94.847 173.897 86.753C163.007 75.937 151.529 69.388 136.371 65.267C130.852 63.796 128.498 63.575 116.872 63.649C104.658 63.649 103.112 63.796 97.1523 65.635C70.6633 73.803 49.7663 95.583 42.7763 122.44C41.3043 128.253 41.0833 130.607 41.1573 142.307C41.2313 154.08 41.4513 156.361 43.1443 162.689C46.0873 173.873 52.3413 185.867 70.2953 214.416C79.4193 228.986 95.0923 254.003 105.099 269.97C116.461 288.101 127.793 306.251 139.094 324.42C147.776 338.401 156.606 352.455 158.593 355.692C160.653 358.93 170.292 374.308 180.005 389.908C199.651 421.474 201.711 424.417 209.29 431.407C218.708 440.164 230.04 446.124 242.328 448.846C250.863 450.759 265.8 450.391 274.704 448.11Z"
    fill="#006FF7"
  />
  <path
    d="M250.203 396.236C240.49 392.63 234.383 383.58 235.118 373.793C235.413 369.82 236.296 368.201 250.423 345.023C266.17 319.122 298.178 266.806 311.496 244.953C315.837 237.889 329.082 216.182 340.928 196.757C365.725 156.214 365.872 155.919 369.919 151.652C374.481 146.869 377.866 145.324 383.973 145.397C390.007 145.397 393.392 146.722 397.659 150.548C402.295 154.742 404.355 158.863 404.797 164.749C404.944 167.472 404.797 170.783 404.355 172.034C403.546 174.388 383.532 207.721 363.738 239.802C357.337 250.103 347.698 265.85 342.253 274.753C328.419 297.269 309.951 327.364 299.723 343.919C295.014 351.645 286.993 364.596 281.99 372.837C271.688 389.76 269.187 392.998 264.919 395.205C261.093 397.119 253.955 397.634 250.203 396.236Z"
    fill="#006FF7"
  />
</svg>
