<svg width="512" height="512" viewBox="0 0 512 512" fill="none" xmlns="http://www.w3.org/2000/svg">
<path d="M250.594 499.744C243.714 499.424 233.994 497.464 227.794 495.144C205.074 486.704 187.914 471.464 175.394 448.624C174.794 447.544 173.194 444.664 171.794 442.224C170.434 439.824 168.834 436.944 168.194 435.824C160.154 421.424 148.954 401.344 146.194 396.462C144.274 393.062 142.074 389.102 141.274 387.662C140.514 386.222 139.354 384.142 138.714 383.102C138.114 382.062 137.594 381.102 137.594 380.982C137.594 380.902 137.194 380.142 136.674 379.302C136.154 378.502 134.874 376.222 133.794 374.222C132.754 372.262 131.754 370.462 131.594 370.222C131.434 370.022 130.754 368.782 130.034 367.542C129.354 366.262 128.234 364.182 127.554 362.942C126.834 361.662 126.154 360.462 125.994 360.222C125.834 360.022 124.754 358.022 123.594 355.822C122.434 353.622 121.354 351.662 121.194 351.422C121.034 351.222 118.674 346.982 115.994 342.022C113.274 337.102 110.794 332.502 110.394 331.822C110.034 331.182 108.034 327.582 105.994 323.822C103.954 320.102 102.154 316.862 101.994 316.622C101.834 316.422 100.994 314.862 100.114 313.222C98.554 310.262 92.074 298.382 90.514 295.622C89.194 293.262 80.994 278.262 77.194 271.222C75.954 268.902 74.234 265.782 73.394 264.222C72.594 262.702 71.474 260.702 70.994 259.822C70.514 258.942 69.434 256.982 68.594 255.422C67.754 253.902 66.034 250.742 64.794 248.422C61.554 242.502 59.954 239.502 57.994 235.822C57.034 234.062 55.594 231.462 54.794 230.022C53.954 228.582 52.674 226.262 51.914 224.822C50.554 222.302 44.114 210.502 42.074 206.822C41.514 205.822 40.474 203.982 39.754 202.702C38.994 201.422 38.394 200.302 38.394 200.222C38.394 200.142 36.034 195.902 33.114 190.742C30.234 185.622 27.434 180.622 26.874 179.622C26.354 178.622 25.594 177.302 25.194 176.622C24.794 175.982 23.554 173.622 22.394 171.422C21.234 169.222 20.154 167.262 19.994 167.022C19.834 166.822 18.834 165.022 17.794 163.022C16.714 161.062 15.514 158.782 15.074 158.022C13.114 154.542 7.51396 143.102 6.39396 140.222C3.63396 133.262 1.51396 124.902 0.433964 116.702C-0.206036 112.062 -0.126036 98.5421 0.593964 93.3821C2.51396 79.1821 7.59396 65.6621 15.434 53.9821C18.114 49.9821 19.274 48.4621 23.994 43.0221C34.434 30.9021 51.194 20.4621 67.794 15.6621C81.154 11.8221 97.914 11.3421 112.474 14.3821C121.874 16.3421 133.994 21.4621 142.194 26.9421C146.034 29.5021 152.354 34.8621 155.594 38.2621C161.194 44.1421 164.914 49.6621 171.594 61.8221C173.634 65.5821 175.714 69.3421 176.194 70.2221C177.834 73.1421 179.474 76.1821 180.994 79.0221C181.834 80.5821 183.794 84.1821 185.394 87.0221C186.954 89.9021 189.114 93.8621 190.194 95.8221C191.274 97.8221 192.474 100.062 192.914 100.822C193.354 101.582 195.954 106.382 198.714 111.422C201.434 116.502 203.834 120.822 203.994 121.022C204.154 121.262 205.274 123.302 206.474 125.622C207.714 127.942 209.074 130.502 209.554 131.342C211.394 134.582 211.914 135.542 213.594 138.622C215.914 142.942 222.314 154.662 223.314 156.422C224.034 157.702 229.034 166.902 232.994 174.222C233.794 175.782 234.914 177.742 235.394 178.622C235.874 179.502 236.874 181.302 237.594 182.622C239.074 185.302 240.314 187.582 241.794 190.182C243.434 193.102 244.034 195.262 244.274 199.022C244.514 203.422 243.994 205.222 240.594 211.062C239.314 213.222 237.034 217.182 235.514 219.822C230.754 228.062 228.914 229.942 224.554 231.062C221.994 231.742 219.874 231.422 217.194 229.862C212.794 227.302 211.314 225.382 206.074 214.902C201.474 205.742 200.794 204.462 190.634 186.062C189.634 184.222 188.794 182.662 188.794 182.582C188.794 182.542 188.194 181.422 187.434 180.142C186.714 178.862 185.474 176.662 184.714 175.222C183.954 173.782 182.714 171.542 181.994 170.222C180.554 167.622 176.994 161.062 174.594 156.622C173.754 155.102 172.234 152.302 171.194 150.422C169.434 147.262 168.554 145.622 164.874 138.822C164.114 137.382 162.634 134.702 161.594 132.822C160.554 130.942 159.034 128.182 158.194 126.622C157.354 125.102 155.634 121.942 154.394 119.622C153.154 117.302 151.434 114.182 150.594 112.622C149.754 111.102 148.954 109.662 148.794 109.422C148.634 109.222 147.794 107.662 146.914 106.022C139.794 92.7421 131.234 77.5821 129.074 74.4221C127.274 71.8621 120.994 65.6621 118.394 63.9821C113.754 60.9421 109.394 58.9821 104.194 57.5821C98.514 56.0221 85.954 56.0621 80.594 57.6221C73.114 59.8221 67.834 62.3421 62.554 66.2221C58.594 69.1021 56.554 71.0621 53.674 74.6221C50.354 78.7421 49.874 79.4621 47.674 84.0621C43.874 91.9021 42.594 97.2621 42.594 105.622C42.594 115.942 44.314 121.222 52.834 137.142C54.434 140.102 56.074 143.142 59.394 149.422C60.474 151.422 62.154 154.542 63.194 156.422C65.034 159.742 66.514 162.462 69.434 167.902C71.274 171.342 73.034 174.582 74.194 176.622C74.674 177.502 75.754 179.422 76.554 180.942C79.194 185.862 80.914 188.982 82.594 192.022C85.154 196.582 86.074 198.302 88.194 202.222C89.234 204.222 90.794 206.982 91.594 208.422C93.234 211.262 93.354 211.462 98.794 221.422C100.834 225.182 102.874 228.862 103.314 229.622C103.754 230.382 104.874 232.462 105.874 234.222C106.834 235.982 107.794 237.702 107.994 238.022C108.194 238.342 109.234 240.262 110.314 242.222C111.394 244.222 112.954 247.102 113.794 248.622C114.634 250.182 115.834 252.302 116.474 253.342C117.074 254.382 117.594 255.342 117.594 255.422C117.594 255.502 118.474 257.102 119.594 259.022C120.674 260.942 121.594 262.542 121.594 262.622C121.594 262.702 123.154 265.502 125.034 268.902C126.954 272.262 129.234 276.382 130.114 278.022C130.994 279.662 132.394 282.182 133.194 283.622C134.034 285.062 135.194 287.142 135.794 288.222C136.394 289.342 138.194 292.582 139.794 295.422C141.394 298.302 143.354 301.902 144.234 303.422C145.074 304.982 146.594 307.702 147.674 309.542C148.714 311.382 149.594 312.942 149.594 313.022C149.594 313.102 150.794 315.302 152.234 317.902C155.474 323.622 160.354 332.462 162.314 336.022C163.074 337.462 164.754 340.422 165.994 342.622C167.274 344.822 169.074 348.062 169.994 349.822C170.954 351.582 172.394 354.182 173.194 355.622C174.034 357.062 175.154 359.062 175.754 360.142C178.274 364.702 179.074 366.102 181.994 371.222C183.674 374.182 185.674 377.702 186.394 379.022C187.114 380.342 188.994 383.662 190.514 386.422C192.074 389.182 194.634 393.782 196.194 396.622C197.754 399.502 199.434 402.464 199.874 403.224C200.314 403.984 202.514 407.944 204.794 412.024C210.754 422.784 217.434 433.864 219.514 436.624C224.114 442.624 231.874 449.024 238.074 451.944C245.234 455.304 253.514 456.904 259.514 456.064C268.154 454.824 273.394 452.864 280.434 448.184C287.954 443.224 293.994 436.224 299.634 425.824C299.994 425.184 301.914 421.744 303.874 418.224C305.874 414.704 308.154 410.584 308.994 409.024C309.834 407.504 311.034 405.344 311.674 404.304C312.274 403.264 312.794 402.304 312.794 402.224C312.794 402.144 313.754 400.424 314.914 398.342C316.114 396.302 318.074 392.742 319.274 390.422C321.794 385.622 322.754 383.902 324.594 380.822C325.314 379.622 326.514 377.462 327.274 376.022C328.074 374.582 329.394 372.182 330.274 370.622C331.554 368.382 335.954 360.502 340.794 351.822C345.594 343.222 347.714 339.342 348.994 337.022C349.834 335.502 350.794 333.702 351.194 333.022C351.594 332.382 352.514 330.662 353.274 329.222C354.074 327.782 355.954 324.382 357.474 321.622C359.034 318.862 360.834 315.622 361.474 314.422C363.714 310.382 366.874 304.662 367.914 302.822C368.474 301.822 369.434 300.022 370.114 298.822C370.754 297.622 372.594 294.302 374.194 291.422C375.794 288.582 378.114 284.262 379.394 281.822C380.674 279.422 381.834 277.262 381.994 277.022C382.154 276.822 382.954 275.382 383.794 273.822C384.634 272.302 387.114 267.782 389.314 263.822C394.234 254.902 394.754 253.982 398.714 246.822C400.432 243.622 403.232 238.582 404.872 235.622C407.512 230.902 411.432 223.822 423.992 201.022C425.672 197.942 427.632 194.422 428.272 193.222C428.952 192.022 429.952 190.182 430.552 189.102C433.792 183.262 436.552 178.302 438.792 174.222C439.512 172.902 440.952 170.302 441.992 168.422C443.032 166.542 444.472 163.942 445.192 162.622C445.912 161.302 447.832 157.902 449.392 155.022C450.992 152.182 453.792 147.142 455.592 143.822C465.592 125.742 467.832 120.222 468.832 111.102C469.552 104.582 468.392 94.9421 466.192 89.2221C463.112 81.2221 460.232 76.7021 454.592 70.9821C447.312 63.6621 438.912 59.1021 428.792 57.0221C424.672 56.1821 414.192 56.2221 410.072 57.0621C402.432 58.6221 395.714 62.1021 389.434 67.6221C385.994 70.7021 381.554 76.1821 378.954 80.6221C377.994 82.2221 373.714 89.9021 372.234 92.6221C370.034 96.6221 368.754 98.9421 366.514 103.022C365.394 105.022 363.834 107.902 362.994 109.422C362.194 110.982 361.074 112.942 360.594 113.822C360.114 114.702 359.114 116.502 358.394 117.822C356.994 120.422 355.874 122.382 354.314 125.222C353.754 126.222 352.674 128.182 351.914 129.622C350.194 132.822 348.714 135.502 346.954 138.542C346.194 139.822 345.594 140.942 345.594 140.982C345.594 141.062 344.754 142.622 343.754 144.462C342.714 146.302 341.314 148.902 340.594 150.222C339.874 151.542 338.874 153.422 338.314 154.422C337.194 156.382 333.834 162.462 331.874 166.022C331.234 167.222 330.234 169.022 329.674 170.022C329.114 171.022 328.034 172.982 327.274 174.422C326.514 175.862 325.274 178.062 324.554 179.342C323.794 180.622 323.194 181.742 323.194 181.822C323.194 181.902 322.674 182.862 322.074 183.902C321.434 184.942 319.794 187.982 318.394 190.622C317.034 193.262 315.754 195.622 315.594 195.822C315.434 196.062 314.514 197.662 313.594 199.422C312.634 201.182 311.514 203.262 311.074 204.022C310.634 204.782 309.634 206.582 308.874 208.022C307.034 211.462 305.114 215.022 302.594 219.622C301.434 221.702 299.834 224.702 298.994 226.222C298.154 227.782 297.354 229.222 297.194 229.422C296.994 229.662 296.394 230.662 295.834 231.742C295.274 232.782 294.314 234.462 293.754 235.542C293.154 236.582 292.154 238.422 291.474 239.622C289.634 243.022 285.554 250.502 284.794 251.822C284.434 252.502 283.354 254.462 282.394 256.222C281.474 257.982 280.554 259.622 280.394 259.822C280.234 260.062 279.354 261.662 278.394 263.422C277.434 265.182 275.394 268.982 273.794 271.822C272.194 274.702 270.234 278.302 269.394 279.822C265.874 286.302 258.554 295.062 252.594 299.822C249.674 302.182 244.434 305.582 241.914 306.742C237.314 308.862 230.994 310.622 225.794 311.222C216.674 312.262 208.674 311.422 199.394 308.542C188.354 305.102 176.234 296.102 169.594 286.382C167.514 283.382 166.794 282.062 161.514 272.022C159.114 267.462 158.674 266.702 153.274 256.822C151.314 253.182 149.114 249.142 148.394 247.822C147.674 246.502 146.954 245.262 146.794 245.022C146.634 244.822 144.834 241.582 142.794 237.822C140.754 234.102 138.674 230.302 138.194 229.422C136.354 226.102 131.274 216.942 130.314 215.222C128.954 212.822 127.234 209.622 125.394 206.222C124.554 204.702 123.754 203.262 123.594 203.022C123.434 202.822 122.634 201.382 121.794 199.822C120.314 197.062 117.154 191.342 115.394 188.222C114.914 187.342 113.994 185.742 113.314 184.622C107.874 175.302 108.594 166.662 115.394 159.342C118.434 156.022 121.954 153.902 125.834 152.982C128.394 152.382 129.154 152.342 131.474 152.782C138.394 154.062 143.834 158.702 148.234 167.022C149.274 169.022 150.714 171.662 151.434 172.942C152.194 174.222 152.794 175.342 152.794 175.422C152.794 175.502 153.314 176.462 153.954 177.542C154.594 178.622 155.954 181.102 156.994 183.062C158.074 185.022 159.354 187.422 159.914 188.422C160.914 190.222 162.154 192.462 164.714 197.222C167.234 201.862 169.794 206.502 173.954 214.022C180.074 224.982 186.994 237.582 190.994 245.022C200.114 261.902 201.474 264.022 204.874 266.542C211.834 271.622 220.514 271.022 227.314 264.862C228.794 263.542 232.394 258.542 234.434 254.942C236.474 251.462 241.994 241.582 243.594 238.622C244.554 236.862 246.354 233.542 247.594 231.222C249.994 226.742 252.154 222.782 254.834 217.742C257.634 212.462 259.314 209.422 259.594 209.022C259.754 208.822 260.554 207.382 261.394 205.822C262.234 204.302 263.834 201.302 264.994 199.222C266.154 197.142 267.754 194.182 268.594 192.622C269.434 191.102 270.594 188.942 271.194 187.822C277.194 176.942 279.274 173.142 281.514 169.022C282.914 166.382 284.234 164.062 284.394 163.822C284.674 163.462 285.714 161.502 289.034 155.342C289.834 153.822 290.914 151.902 291.394 151.022C291.874 150.142 294.954 144.582 298.194 138.622C301.434 132.702 304.634 126.822 305.314 125.622C305.954 124.422 307.154 122.262 307.914 120.822C308.674 119.382 310.754 115.622 312.514 112.422C314.274 109.222 316.514 105.102 317.514 103.222C318.474 101.342 319.514 99.4621 319.794 99.0221C320.074 98.5821 320.914 97.0221 321.754 95.5421C322.554 94.0221 323.834 91.6221 324.674 90.1421C325.474 88.6221 327.154 85.5421 328.394 83.2221C329.634 80.9021 331.554 77.4221 332.674 75.4221C333.794 73.4621 335.354 70.5821 336.194 69.0221C336.994 67.5021 338.114 65.5021 338.594 64.6221C339.074 63.7421 340.154 61.7821 340.994 60.2221C346.114 50.6621 350.634 44.2221 356.394 38.2621C369.754 24.4221 387.554 15.6221 407.352 12.9821C412.432 12.3421 426.072 12.2221 429.952 12.8221C431.392 13.0621 433.872 13.4221 435.392 13.6621C450.392 15.9421 466.472 23.3421 478.992 33.7821C481.912 36.2221 488.512 42.8621 490.632 45.5021C491.512 46.5421 492.272 47.5021 492.392 47.6221C492.952 48.1821 497.592 54.9021 498.872 57.0221C505.512 68.1021 509.272 78.8221 511.432 92.7821C512.112 97.2221 512.192 112.182 511.592 116.542C510.272 125.782 508.432 133.182 505.592 140.222C504.072 144.062 492.872 166.102 491.592 167.822C491.392 168.062 490.792 169.062 490.232 170.142C488.952 172.502 487.552 174.982 486.512 176.822C486.072 177.582 484.952 179.662 483.992 181.422C483.072 183.182 482.152 184.822 481.992 185.022C481.832 185.262 481.072 186.622 480.232 188.142C479.432 189.622 478.152 192.022 477.352 193.542C476.512 195.022 475.752 196.422 475.592 196.622C475.432 196.862 474.352 198.822 473.192 201.022C472.032 203.222 470.952 205.222 470.792 205.422C470.632 205.662 469.632 207.462 468.592 209.422C467.552 211.422 466.112 214.102 465.392 215.422C464.672 216.742 463.312 219.262 462.392 221.022C461.432 222.782 460.352 224.782 459.952 225.462C459.552 226.182 458.312 228.502 457.152 230.662C455.992 232.862 454.952 234.822 454.792 235.022C454.632 235.262 453.752 236.862 452.792 238.622C450.472 242.982 448.512 246.622 447.192 249.022C446.592 250.142 445.432 252.222 444.632 253.742C441.952 258.702 440.272 261.782 437.192 267.422C435.512 270.502 433.472 274.182 432.712 275.622C428.872 282.702 427.112 285.902 425.992 287.822C425.592 288.502 424.712 290.102 423.992 291.422C423.272 292.742 422.272 294.542 421.792 295.422C421.312 296.302 420.072 298.662 418.992 300.622C417.952 302.622 416.752 304.782 416.392 305.422C415.992 306.102 415.112 307.702 414.392 309.022C413.672 310.342 411.752 313.782 410.192 316.622C403.952 327.822 401.592 332.102 401.592 332.262C401.592 332.342 401.072 333.262 400.472 334.302C399.834 335.342 398.634 337.502 397.834 339.022C395.554 343.182 394.314 345.462 392.194 349.222C391.154 351.102 389.754 353.622 389.074 354.822C388.434 356.022 387.754 357.222 387.594 357.422C387.434 357.662 386.554 359.262 385.594 361.022C384.634 362.782 383.554 364.702 383.154 365.302C382.714 365.862 382.394 366.422 382.394 366.502C382.394 366.622 381.314 368.622 379.994 370.982C378.674 373.342 377.594 375.382 377.594 375.462C377.594 375.542 377.154 376.302 376.674 377.142C375.714 378.582 374.554 380.742 371.194 387.022C370.234 388.782 369.354 390.422 369.194 390.622C369.034 390.862 368.354 392.022 367.714 393.222C367.034 394.422 366.074 396.222 365.514 397.222C364.954 398.222 364.074 399.822 363.514 400.824C362.954 401.824 361.914 403.624 361.194 404.824C360.474 406.024 359.434 407.824 358.874 408.824C358.314 409.824 356.474 413.064 354.794 416.024C351.234 422.264 350.434 423.704 347.794 428.624C346.754 430.624 345.434 432.984 344.914 433.944C344.434 434.864 343.554 436.384 343.074 437.344C342.554 438.264 340.794 441.424 339.154 444.384C337.514 447.344 335.914 450.224 335.594 450.784C335.234 451.344 334.434 452.744 333.794 453.824C329.354 461.464 324.914 467.184 318.434 473.664C309.434 482.664 299.074 489.464 287.594 493.944C275.514 498.624 264.194 500.424 250.594 499.744Z" fill="#0076FF"/>
<path d="M252.594 414.944C248.714 414.304 242.954 410.384 240.394 406.624C237.714 402.704 236.714 396.702 237.994 392.222C238.514 390.382 241.154 384.742 242.594 382.422C243.354 381.182 249.954 369.262 252.114 365.222C252.994 363.582 254.514 360.702 255.514 358.822C258.634 352.902 260.114 350.262 260.874 349.142C261.274 348.582 261.594 348.022 261.594 347.902C261.594 347.782 265.474 340.702 270.234 332.142C274.994 323.622 279.514 315.462 280.314 314.022C281.114 312.582 282.594 309.942 283.674 308.102C284.714 306.262 285.594 304.702 285.594 304.622C285.594 304.542 286.114 303.582 286.714 302.542C287.354 301.502 288.554 299.382 289.354 297.822C292.794 291.502 293.354 290.502 294.794 288.022C295.634 286.582 298.114 282.182 300.314 278.222C303.874 271.742 308.114 264.142 310.874 259.222C311.434 258.222 313.434 254.662 315.354 251.262C317.274 247.902 319.474 243.942 320.274 242.462C321.074 241.022 321.834 239.662 321.994 239.422C322.194 239.222 322.754 238.222 323.314 237.222C328.594 227.582 330.114 224.822 337.194 212.422C339.754 207.902 342.674 202.702 343.674 200.822C344.674 198.942 346.434 195.822 347.554 193.902C348.674 191.942 349.594 190.302 349.594 190.222C349.594 190.142 351.674 186.342 354.234 181.742C359.474 172.302 361.034 170.422 365.354 168.262C373.034 164.422 380.634 165.942 387.074 172.662C388.514 174.142 390.034 176.262 390.754 177.702C393.354 183.222 392.994 190.582 389.794 196.262C387.554 200.262 386.674 201.782 382.794 209.022C381.834 210.782 380.634 213.022 380.074 214.022C379.514 215.022 378.394 217.102 377.554 218.662C376.714 220.222 375.474 222.462 374.794 223.582C374.154 224.742 373.594 225.742 373.594 225.822C373.594 225.902 372.994 227.022 372.274 228.302C371.514 229.582 369.914 232.502 368.714 234.822C367.474 237.142 366.074 239.742 365.594 240.622C365.074 241.502 364.034 243.382 363.274 244.822C362.514 246.262 361.274 248.462 360.554 249.742C359.794 251.022 359.194 252.142 359.194 252.222C359.194 252.302 358.314 253.902 357.234 255.782C355.314 259.062 353.754 261.942 350.274 268.422C349.394 270.062 348.554 271.622 348.394 271.822C348.234 272.062 346.794 274.742 345.194 277.782C343.594 280.862 341.794 284.222 341.154 285.302C340.514 286.382 339.994 287.342 339.994 287.422C339.994 287.502 339.114 289.102 337.994 291.022C336.914 292.942 335.994 294.542 335.994 294.622C335.994 294.702 335.474 295.662 334.874 296.702C334.234 297.742 332.954 300.062 331.994 301.822C331.034 303.582 329.954 305.502 329.554 306.102C329.114 306.662 328.794 307.222 328.794 307.342C328.794 307.462 327.714 309.502 326.394 311.862C325.074 314.222 323.994 316.222 323.994 316.262C323.994 316.302 323.114 317.902 321.994 319.822C320.914 321.742 319.994 323.342 319.994 323.422C319.994 323.502 319.074 325.142 317.954 327.102C316.834 329.022 315.234 331.902 314.394 333.422C312.554 336.862 311.114 339.502 309.354 342.542C308.594 343.822 307.994 344.942 307.994 345.022C307.994 345.102 307.474 346.062 306.874 347.102C306.234 348.142 305.114 350.182 304.314 351.622C303.514 353.062 301.674 356.382 300.194 359.022C298.714 361.662 296.954 364.822 296.274 366.022C295.634 367.222 293.794 370.582 292.194 373.422C290.594 376.302 288.714 379.702 287.994 381.022C282.954 390.222 275.994 402.264 273.914 405.304C272.354 407.624 267.794 412.424 267.154 412.424C266.954 412.424 266.274 412.744 265.714 413.104C265.114 413.504 263.994 414.064 263.194 414.344C261.754 414.904 254.714 415.304 252.594 414.944Z" fill="#0076FF"/>
</svg>
